<mxfile host="Electron" agent="Mozilla/5.0 (X11; Linux x86_64) AppleWebKit/537.36 (KHTML, like Gecko) draw.io/24.7.8 Chrome/128.0.6613.36 Electron/32.0.1 Safari/537.36" version="24.7.8">
  <diagram name="Page-1" id="oKdUrKy9WBMit2szEiSS">
    <mxGraphModel dx="1683" dy="998" grid="1" gridSize="10" guides="1" tooltips="1" connect="1" arrows="1" fold="1" page="1" pageScale="1" pageWidth="850" pageHeight="1100" math="1" shadow="0">
      <root>
        <mxCell id="0" />
        <mxCell id="1" parent="0" />
        <mxCell id="dT-vbAdVCcEeyKs4xp4G-1" value="" style="endArrow=none;html=1;rounded=0;exitDx=0;exitDy=0;exitPerimeter=0;strokeWidth=2;" edge="1" parent="1" source="dT-vbAdVCcEeyKs4xp4G-10">
          <mxGeometry width="50" height="50" relative="1" as="geometry">
            <mxPoint x="120" y="120" as="sourcePoint" />
            <mxPoint x="240" y="120" as="targetPoint" />
          </mxGeometry>
        </mxCell>
        <mxCell id="dT-vbAdVCcEeyKs4xp4G-2" value="" style="pointerEvents=1;verticalLabelPosition=bottom;shadow=0;dashed=0;align=center;html=1;verticalAlign=top;shape=mxgraph.electrical.capacitors.capacitor_1;strokeWidth=2;" vertex="1" parent="1">
          <mxGeometry x="240" y="105" width="80" height="30" as="geometry" />
        </mxCell>
        <mxCell id="dT-vbAdVCcEeyKs4xp4G-3" value="" style="endArrow=none;html=1;rounded=0;strokeWidth=2;" edge="1" parent="1" source="dT-vbAdVCcEeyKs4xp4G-13">
          <mxGeometry width="50" height="50" relative="1" as="geometry">
            <mxPoint x="332" y="120" as="sourcePoint" />
            <mxPoint x="452" y="120" as="targetPoint" />
          </mxGeometry>
        </mxCell>
        <mxCell id="dT-vbAdVCcEeyKs4xp4G-4" value="" style="pointerEvents=1;verticalLabelPosition=bottom;shadow=0;dashed=0;align=center;html=1;verticalAlign=top;shape=mxgraph.electrical.capacitors.capacitor_1;direction=south;strokeWidth=2;" vertex="1" parent="1">
          <mxGeometry x="90" y="120" width="30" height="80" as="geometry" />
        </mxCell>
        <mxCell id="dT-vbAdVCcEeyKs4xp4G-5" value="" style="pointerEvents=1;verticalLabelPosition=bottom;shadow=0;dashed=0;align=center;html=1;verticalAlign=top;shape=mxgraph.electrical.capacitors.capacitor_1;direction=south;strokeWidth=2;" vertex="1" parent="1">
          <mxGeometry x="210" y="120" width="30" height="80" as="geometry" />
        </mxCell>
        <mxCell id="dT-vbAdVCcEeyKs4xp4G-6" value="" style="pointerEvents=1;verticalLabelPosition=bottom;shadow=0;dashed=0;align=center;html=1;verticalAlign=top;shape=mxgraph.electrical.capacitors.capacitor_1;direction=south;strokeWidth=2;" vertex="1" parent="1">
          <mxGeometry x="150" y="120" width="30" height="80" as="geometry" />
        </mxCell>
        <mxCell id="dT-vbAdVCcEeyKs4xp4G-7" value="" style="pointerEvents=1;verticalLabelPosition=bottom;shadow=0;dashed=0;align=center;html=1;verticalAlign=top;shape=mxgraph.electrical.capacitors.capacitor_1;direction=south;strokeWidth=2;" vertex="1" parent="1">
          <mxGeometry x="392" y="120" width="30" height="80" as="geometry" />
        </mxCell>
        <mxCell id="dT-vbAdVCcEeyKs4xp4G-8" value="" style="pointerEvents=1;verticalLabelPosition=bottom;shadow=0;dashed=0;align=center;html=1;verticalAlign=top;shape=mxgraph.electrical.capacitors.capacitor_1;direction=south;strokeWidth=2;" vertex="1" parent="1">
          <mxGeometry x="332" y="120" width="30" height="80" as="geometry" />
        </mxCell>
        <mxCell id="dT-vbAdVCcEeyKs4xp4G-9" value="" style="shape=waypoint;sketch=0;fillStyle=solid;size=6;pointerEvents=1;points=[];fillColor=none;resizable=0;rotatable=0;perimeter=centerPerimeter;snapToPoint=1;strokeWidth=2;" vertex="1" parent="1">
          <mxGeometry x="155" y="110" width="20" height="20" as="geometry" />
        </mxCell>
        <mxCell id="dT-vbAdVCcEeyKs4xp4G-11" value="" style="endArrow=none;html=1;rounded=0;exitX=0;exitY=0.5;exitDx=0;exitDy=0;exitPerimeter=0;strokeWidth=2;" edge="1" parent="1" source="dT-vbAdVCcEeyKs4xp4G-4" target="dT-vbAdVCcEeyKs4xp4G-10">
          <mxGeometry width="50" height="50" relative="1" as="geometry">
            <mxPoint x="105" y="120" as="sourcePoint" />
            <mxPoint x="240" y="120" as="targetPoint" />
          </mxGeometry>
        </mxCell>
        <mxCell id="dT-vbAdVCcEeyKs4xp4G-10" value="" style="shape=waypoint;sketch=0;fillStyle=solid;size=6;pointerEvents=1;points=[];fillColor=none;resizable=0;rotatable=0;perimeter=centerPerimeter;snapToPoint=1;strokeWidth=2;" vertex="1" parent="1">
          <mxGeometry x="215" y="110" width="20" height="20" as="geometry" />
        </mxCell>
        <mxCell id="dT-vbAdVCcEeyKs4xp4G-12" value="" style="shape=waypoint;sketch=0;fillStyle=solid;size=6;pointerEvents=1;points=[];fillColor=none;resizable=0;rotatable=0;perimeter=centerPerimeter;snapToPoint=1;strokeWidth=2;" vertex="1" parent="1">
          <mxGeometry x="337" y="110" width="20" height="20" as="geometry" />
        </mxCell>
        <mxCell id="dT-vbAdVCcEeyKs4xp4G-14" value="" style="endArrow=none;html=1;rounded=0;exitX=1;exitY=0.5;exitDx=0;exitDy=0;exitPerimeter=0;strokeWidth=2;" edge="1" parent="1" source="dT-vbAdVCcEeyKs4xp4G-2" target="dT-vbAdVCcEeyKs4xp4G-13">
          <mxGeometry width="50" height="50" relative="1" as="geometry">
            <mxPoint x="332" y="120" as="sourcePoint" />
            <mxPoint x="452" y="120" as="targetPoint" />
          </mxGeometry>
        </mxCell>
        <mxCell id="dT-vbAdVCcEeyKs4xp4G-13" value="" style="shape=waypoint;sketch=0;fillStyle=solid;size=6;pointerEvents=1;points=[];fillColor=none;resizable=0;rotatable=0;perimeter=centerPerimeter;snapToPoint=1;strokeWidth=2;" vertex="1" parent="1">
          <mxGeometry x="397" y="110" width="20" height="20" as="geometry" />
        </mxCell>
        <mxCell id="dT-vbAdVCcEeyKs4xp4G-15" value="" style="pointerEvents=1;verticalLabelPosition=bottom;shadow=0;dashed=0;align=center;html=1;verticalAlign=top;shape=mxgraph.electrical.signal_sources.signal_ground;strokeWidth=2;" vertex="1" parent="1">
          <mxGeometry x="95" y="200" width="20" height="20" as="geometry" />
        </mxCell>
        <mxCell id="dT-vbAdVCcEeyKs4xp4G-17" value="" style="verticalLabelPosition=bottom;shadow=0;dashed=0;align=center;html=1;verticalAlign=top;shape=mxgraph.electrical.abstract.amplifier;fillColor=none;strokeWidth=2;" vertex="1" parent="1">
          <mxGeometry x="452" y="85" width="70" height="70" as="geometry" />
        </mxCell>
        <mxCell id="dT-vbAdVCcEeyKs4xp4G-18" value="&lt;font style=&quot;font-size: 16px;&quot;&gt;$$b_0$$&lt;/font&gt;" style="text;html=1;align=center;verticalAlign=middle;whiteSpace=wrap;rounded=0;" vertex="1" parent="1">
          <mxGeometry x="135" y="200" width="60" height="30" as="geometry" />
        </mxCell>
        <mxCell id="dT-vbAdVCcEeyKs4xp4G-19" value="&lt;font style=&quot;font-size: 16px;&quot;&gt;$$b_1$$&lt;/font&gt;" style="text;html=1;align=center;verticalAlign=middle;whiteSpace=wrap;rounded=0;" vertex="1" parent="1">
          <mxGeometry x="195" y="200" width="60" height="30" as="geometry" />
        </mxCell>
        <mxCell id="dT-vbAdVCcEeyKs4xp4G-20" value="&lt;font style=&quot;font-size: 16px;&quot;&gt;$$b_2$$&lt;/font&gt;" style="text;html=1;align=center;verticalAlign=middle;whiteSpace=wrap;rounded=0;" vertex="1" parent="1">
          <mxGeometry x="317" y="200" width="60" height="30" as="geometry" />
        </mxCell>
        <mxCell id="dT-vbAdVCcEeyKs4xp4G-21" value="&lt;font style=&quot;font-size: 16px;&quot;&gt;$$b_3$$&lt;/font&gt;" style="text;html=1;align=center;verticalAlign=middle;whiteSpace=wrap;rounded=0;" vertex="1" parent="1">
          <mxGeometry x="377" y="200" width="60" height="30" as="geometry" />
        </mxCell>
        <mxCell id="dT-vbAdVCcEeyKs4xp4G-22" value="&lt;font style=&quot;font-size: 12px;&quot;&gt;$$V_{dac}$$&lt;/font&gt;" style="text;html=1;align=center;verticalAlign=middle;whiteSpace=wrap;rounded=0;strokeWidth=2;" vertex="1" parent="1">
          <mxGeometry x="357" y="90" width="60" height="30" as="geometry" />
        </mxCell>
        <mxCell id="dT-vbAdVCcEeyKs4xp4G-23" value="&lt;font style=&quot;font-size: 12px;&quot;&gt;$$V_{x}$$&lt;/font&gt;" style="text;html=1;align=center;verticalAlign=middle;whiteSpace=wrap;rounded=0;strokeWidth=2;" vertex="1" parent="1">
          <mxGeometry x="170" y="90" width="60" height="30" as="geometry" />
        </mxCell>
        <mxCell id="dT-vbAdVCcEeyKs4xp4G-24" value="&lt;font style=&quot;font-size: 12px;&quot;&gt;$$C$$&lt;/font&gt;" style="text;html=1;align=center;verticalAlign=middle;whiteSpace=wrap;rounded=0;strokeWidth=2;" vertex="1" parent="1">
          <mxGeometry x="292" y="145" width="60" height="30" as="geometry" />
        </mxCell>
        <mxCell id="dT-vbAdVCcEeyKs4xp4G-25" value="&lt;font style=&quot;font-size: 12px;&quot;&gt;$$2C$$&lt;/font&gt;" style="text;html=1;align=center;verticalAlign=middle;whiteSpace=wrap;rounded=0;strokeWidth=2;" vertex="1" parent="1">
          <mxGeometry x="352" y="145" width="60" height="30" as="geometry" />
        </mxCell>
        <mxCell id="dT-vbAdVCcEeyKs4xp4G-26" value="&lt;font style=&quot;font-size: 12px;&quot;&gt;$$2C$$&lt;/font&gt;" style="text;html=1;align=center;verticalAlign=middle;whiteSpace=wrap;rounded=0;strokeWidth=2;" vertex="1" parent="1">
          <mxGeometry x="170" y="145" width="60" height="30" as="geometry" />
        </mxCell>
        <mxCell id="dT-vbAdVCcEeyKs4xp4G-27" value="&lt;font style=&quot;font-size: 12px;&quot;&gt;$$C$$&lt;/font&gt;" style="text;html=1;align=center;verticalAlign=middle;whiteSpace=wrap;rounded=0;strokeWidth=2;" vertex="1" parent="1">
          <mxGeometry x="50" y="145" width="60" height="30" as="geometry" />
        </mxCell>
        <mxCell id="dT-vbAdVCcEeyKs4xp4G-28" value="&lt;font style=&quot;font-size: 12px;&quot;&gt;$$C$$&lt;/font&gt;" style="text;html=1;align=center;verticalAlign=middle;whiteSpace=wrap;rounded=0;strokeWidth=2;" vertex="1" parent="1">
          <mxGeometry x="110" y="145" width="60" height="30" as="geometry" />
        </mxCell>
        <mxCell id="dT-vbAdVCcEeyKs4xp4G-29" value="&lt;font style=&quot;font-size: 12px;&quot;&gt;$$C_{b}=\frac{4}{3}C$$&lt;/font&gt;" style="text;html=1;align=center;verticalAlign=middle;whiteSpace=wrap;rounded=0;" vertex="1" parent="1">
          <mxGeometry x="245" y="70" width="60" height="30" as="geometry" />
        </mxCell>
        <mxCell id="dT-vbAdVCcEeyKs4xp4G-30" value="" style="endArrow=none;html=1;rounded=0;startArrow=blockThin;startFill=1;startSize=3;fillColor=#d5e8d4;strokeColor=#82b366;strokeWidth=2;" edge="1" parent="1">
          <mxGeometry width="50" height="50" relative="1" as="geometry">
            <mxPoint x="310.5" y="110" as="sourcePoint" />
            <mxPoint x="333.5" y="110" as="targetPoint" />
          </mxGeometry>
        </mxCell>
        <mxCell id="dT-vbAdVCcEeyKs4xp4G-31" value="" style="endArrow=none;html=1;rounded=0;fillColor=#d5e8d4;strokeColor=#82b366;" edge="1" parent="1">
          <mxGeometry width="50" height="50" relative="1" as="geometry">
            <mxPoint x="333" y="110" as="sourcePoint" />
            <mxPoint x="333" y="100" as="targetPoint" />
          </mxGeometry>
        </mxCell>
        <mxCell id="dT-vbAdVCcEeyKs4xp4G-32" value="&lt;font color=&quot;#67ab9f&quot; style=&quot;font-size: 12px;&quot;&gt;$$C$$&lt;/font&gt;" style="text;html=1;align=center;verticalAlign=middle;whiteSpace=wrap;rounded=0;" vertex="1" parent="1">
          <mxGeometry x="305" y="75" width="60" height="30" as="geometry" />
        </mxCell>
        <mxCell id="dT-vbAdVCcEeyKs4xp4G-33" value="" style="endArrow=none;html=1;rounded=0;exitDx=0;exitDy=0;exitPerimeter=0;strokeWidth=2;" edge="1" parent="1" source="dT-vbAdVCcEeyKs4xp4G-39">
          <mxGeometry width="50" height="50" relative="1" as="geometry">
            <mxPoint x="120" y="280" as="sourcePoint" />
            <mxPoint x="240" y="280" as="targetPoint" />
          </mxGeometry>
        </mxCell>
        <mxCell id="dT-vbAdVCcEeyKs4xp4G-34" value="" style="pointerEvents=1;verticalLabelPosition=bottom;shadow=0;dashed=0;align=center;html=1;verticalAlign=top;shape=mxgraph.electrical.capacitors.capacitor_1;direction=south;strokeWidth=2;" vertex="1" parent="1">
          <mxGeometry x="90" y="280" width="30" height="80" as="geometry" />
        </mxCell>
        <mxCell id="dT-vbAdVCcEeyKs4xp4G-35" value="" style="pointerEvents=1;verticalLabelPosition=bottom;shadow=0;dashed=0;align=center;html=1;verticalAlign=top;shape=mxgraph.electrical.capacitors.capacitor_1;direction=south;strokeWidth=2;" vertex="1" parent="1">
          <mxGeometry x="210" y="280" width="30" height="80" as="geometry" />
        </mxCell>
        <mxCell id="dT-vbAdVCcEeyKs4xp4G-36" value="" style="pointerEvents=1;verticalLabelPosition=bottom;shadow=0;dashed=0;align=center;html=1;verticalAlign=top;shape=mxgraph.electrical.capacitors.capacitor_1;direction=south;strokeWidth=2;" vertex="1" parent="1">
          <mxGeometry x="150" y="280" width="30" height="80" as="geometry" />
        </mxCell>
        <mxCell id="dT-vbAdVCcEeyKs4xp4G-37" value="" style="shape=waypoint;sketch=0;fillStyle=solid;size=6;pointerEvents=1;points=[];fillColor=none;resizable=0;rotatable=0;perimeter=centerPerimeter;snapToPoint=1;strokeWidth=2;" vertex="1" parent="1">
          <mxGeometry x="155" y="270" width="20" height="20" as="geometry" />
        </mxCell>
        <mxCell id="dT-vbAdVCcEeyKs4xp4G-38" value="" style="endArrow=none;html=1;rounded=0;exitX=0;exitY=0.5;exitDx=0;exitDy=0;exitPerimeter=0;strokeWidth=2;" edge="1" parent="1" source="dT-vbAdVCcEeyKs4xp4G-34" target="dT-vbAdVCcEeyKs4xp4G-39">
          <mxGeometry width="50" height="50" relative="1" as="geometry">
            <mxPoint x="105" y="280" as="sourcePoint" />
            <mxPoint x="240" y="280" as="targetPoint" />
          </mxGeometry>
        </mxCell>
        <mxCell id="dT-vbAdVCcEeyKs4xp4G-39" value="" style="shape=waypoint;sketch=0;fillStyle=solid;size=6;pointerEvents=1;points=[];fillColor=none;resizable=0;rotatable=0;perimeter=centerPerimeter;snapToPoint=1;strokeWidth=2;" vertex="1" parent="1">
          <mxGeometry x="215" y="270" width="20" height="20" as="geometry" />
        </mxCell>
        <mxCell id="dT-vbAdVCcEeyKs4xp4G-40" value="" style="pointerEvents=1;verticalLabelPosition=bottom;shadow=0;dashed=0;align=center;html=1;verticalAlign=top;shape=mxgraph.electrical.signal_sources.signal_ground;strokeWidth=2;" vertex="1" parent="1">
          <mxGeometry x="95" y="360" width="20" height="20" as="geometry" />
        </mxCell>
        <mxCell id="dT-vbAdVCcEeyKs4xp4G-41" value="&lt;font style=&quot;font-size: 16px;&quot;&gt;$$b_0$$&lt;/font&gt;" style="text;html=1;align=center;verticalAlign=middle;whiteSpace=wrap;rounded=0;" vertex="1" parent="1">
          <mxGeometry x="135" y="360" width="60" height="30" as="geometry" />
        </mxCell>
        <mxCell id="dT-vbAdVCcEeyKs4xp4G-42" value="&lt;font style=&quot;font-size: 16px;&quot;&gt;$$b_1$$&lt;/font&gt;" style="text;html=1;align=center;verticalAlign=middle;whiteSpace=wrap;rounded=0;" vertex="1" parent="1">
          <mxGeometry x="195" y="360" width="60" height="30" as="geometry" />
        </mxCell>
        <mxCell id="dT-vbAdVCcEeyKs4xp4G-43" value="&lt;font style=&quot;font-size: 12px;&quot;&gt;$$V_{x}$$&lt;/font&gt;" style="text;html=1;align=center;verticalAlign=middle;whiteSpace=wrap;rounded=0;strokeWidth=2;" vertex="1" parent="1">
          <mxGeometry x="170" y="250" width="60" height="30" as="geometry" />
        </mxCell>
        <mxCell id="dT-vbAdVCcEeyKs4xp4G-44" value="&lt;font style=&quot;font-size: 12px;&quot;&gt;$$2C$$&lt;/font&gt;" style="text;html=1;align=center;verticalAlign=middle;whiteSpace=wrap;rounded=0;strokeWidth=2;" vertex="1" parent="1">
          <mxGeometry x="170" y="305" width="60" height="30" as="geometry" />
        </mxCell>
        <mxCell id="dT-vbAdVCcEeyKs4xp4G-45" value="&lt;font style=&quot;font-size: 12px;&quot;&gt;$$C$$&lt;/font&gt;" style="text;html=1;align=center;verticalAlign=middle;whiteSpace=wrap;rounded=0;strokeWidth=2;" vertex="1" parent="1">
          <mxGeometry x="50" y="305" width="60" height="30" as="geometry" />
        </mxCell>
        <mxCell id="dT-vbAdVCcEeyKs4xp4G-46" value="&lt;font style=&quot;font-size: 12px;&quot;&gt;$$C$$&lt;/font&gt;" style="text;html=1;align=center;verticalAlign=middle;whiteSpace=wrap;rounded=0;strokeWidth=2;" vertex="1" parent="1">
          <mxGeometry x="110" y="305" width="60" height="30" as="geometry" />
        </mxCell>
        <mxCell id="dT-vbAdVCcEeyKs4xp4G-47" value="" style="shape=flexArrow;endArrow=classic;html=1;rounded=0;" edge="1" parent="1">
          <mxGeometry width="50" height="50" relative="1" as="geometry">
            <mxPoint x="280" y="320" as="sourcePoint" />
            <mxPoint x="340" y="320" as="targetPoint" />
          </mxGeometry>
        </mxCell>
        <mxCell id="dT-vbAdVCcEeyKs4xp4G-48" value="" style="pointerEvents=1;verticalLabelPosition=bottom;shadow=0;dashed=0;align=center;html=1;verticalAlign=top;shape=mxgraph.electrical.capacitors.capacitor_1;direction=west;strokeWidth=2;" vertex="1" parent="1">
          <mxGeometry x="437" y="305" width="80" height="30" as="geometry" />
        </mxCell>
        <mxCell id="dT-vbAdVCcEeyKs4xp4G-49" value="&lt;font style=&quot;font-size: 12px;&quot;&gt;$$V_{x}$$&lt;/font&gt;" style="text;html=1;align=center;verticalAlign=middle;whiteSpace=wrap;rounded=0;strokeWidth=2;" vertex="1" parent="1">
          <mxGeometry x="489" y="290" width="60" height="30" as="geometry" />
        </mxCell>
        <mxCell id="dT-vbAdVCcEeyKs4xp4G-50" value="&lt;font style=&quot;font-size: 12px;&quot;&gt;$$4C$$&lt;/font&gt;" style="text;html=1;align=center;verticalAlign=middle;whiteSpace=wrap;rounded=0;strokeWidth=2;" vertex="1" parent="1">
          <mxGeometry x="447" y="275" width="60" height="30" as="geometry" />
        </mxCell>
        <mxCell id="dT-vbAdVCcEeyKs4xp4G-51" value="&lt;font style=&quot;font-size: 16px;&quot;&gt;$$\frac{1}{2}b_1+\frac{1}{4}b_0$$&lt;/font&gt;" style="text;html=1;align=center;verticalAlign=middle;whiteSpace=wrap;rounded=0;" vertex="1" parent="1">
          <mxGeometry x="365" y="290" width="60" height="30" as="geometry" />
        </mxCell>
        <mxCell id="dT-vbAdVCcEeyKs4xp4G-56" value="" style="endArrow=none;html=1;rounded=0;exitDx=0;exitDy=0;exitPerimeter=0;strokeWidth=2;" edge="1" parent="1" source="dT-vbAdVCcEeyKs4xp4G-63">
          <mxGeometry width="50" height="50" relative="1" as="geometry">
            <mxPoint x="120" y="450" as="sourcePoint" />
            <mxPoint x="240" y="450" as="targetPoint" />
          </mxGeometry>
        </mxCell>
        <mxCell id="dT-vbAdVCcEeyKs4xp4G-57" value="" style="pointerEvents=1;verticalLabelPosition=bottom;shadow=0;dashed=0;align=center;html=1;verticalAlign=top;shape=mxgraph.electrical.capacitors.capacitor_1;strokeWidth=2;" vertex="1" parent="1">
          <mxGeometry x="240" y="435" width="80" height="30" as="geometry" />
        </mxCell>
        <mxCell id="dT-vbAdVCcEeyKs4xp4G-58" value="" style="pointerEvents=1;verticalLabelPosition=bottom;shadow=0;dashed=0;align=center;html=1;verticalAlign=top;shape=mxgraph.electrical.capacitors.capacitor_1;direction=south;strokeWidth=2;" vertex="1" parent="1">
          <mxGeometry x="90" y="450" width="30" height="80" as="geometry" />
        </mxCell>
        <mxCell id="dT-vbAdVCcEeyKs4xp4G-59" value="" style="pointerEvents=1;verticalLabelPosition=bottom;shadow=0;dashed=0;align=center;html=1;verticalAlign=top;shape=mxgraph.electrical.capacitors.capacitor_1;direction=south;strokeWidth=2;" vertex="1" parent="1">
          <mxGeometry x="210" y="450" width="30" height="80" as="geometry" />
        </mxCell>
        <mxCell id="dT-vbAdVCcEeyKs4xp4G-60" value="" style="pointerEvents=1;verticalLabelPosition=bottom;shadow=0;dashed=0;align=center;html=1;verticalAlign=top;shape=mxgraph.electrical.capacitors.capacitor_1;direction=south;strokeWidth=2;" vertex="1" parent="1">
          <mxGeometry x="150" y="450" width="30" height="80" as="geometry" />
        </mxCell>
        <mxCell id="dT-vbAdVCcEeyKs4xp4G-61" value="" style="shape=waypoint;sketch=0;fillStyle=solid;size=6;pointerEvents=1;points=[];fillColor=none;resizable=0;rotatable=0;perimeter=centerPerimeter;snapToPoint=1;strokeWidth=2;" vertex="1" parent="1">
          <mxGeometry x="155" y="440" width="20" height="20" as="geometry" />
        </mxCell>
        <mxCell id="dT-vbAdVCcEeyKs4xp4G-62" value="" style="endArrow=none;html=1;rounded=0;exitX=0;exitY=0.5;exitDx=0;exitDy=0;exitPerimeter=0;strokeWidth=2;" edge="1" parent="1" source="dT-vbAdVCcEeyKs4xp4G-58" target="dT-vbAdVCcEeyKs4xp4G-63">
          <mxGeometry width="50" height="50" relative="1" as="geometry">
            <mxPoint x="105" y="450" as="sourcePoint" />
            <mxPoint x="240" y="450" as="targetPoint" />
          </mxGeometry>
        </mxCell>
        <mxCell id="dT-vbAdVCcEeyKs4xp4G-63" value="" style="shape=waypoint;sketch=0;fillStyle=solid;size=6;pointerEvents=1;points=[];fillColor=none;resizable=0;rotatable=0;perimeter=centerPerimeter;snapToPoint=1;strokeWidth=2;" vertex="1" parent="1">
          <mxGeometry x="215" y="440" width="20" height="20" as="geometry" />
        </mxCell>
        <mxCell id="dT-vbAdVCcEeyKs4xp4G-64" value="" style="pointerEvents=1;verticalLabelPosition=bottom;shadow=0;dashed=0;align=center;html=1;verticalAlign=top;shape=mxgraph.electrical.signal_sources.signal_ground;strokeWidth=2;" vertex="1" parent="1">
          <mxGeometry x="95" y="530" width="20" height="20" as="geometry" />
        </mxCell>
        <mxCell id="dT-vbAdVCcEeyKs4xp4G-65" value="&lt;font style=&quot;font-size: 16px;&quot;&gt;$$b_0$$&lt;/font&gt;" style="text;html=1;align=center;verticalAlign=middle;whiteSpace=wrap;rounded=0;" vertex="1" parent="1">
          <mxGeometry x="135" y="530" width="60" height="30" as="geometry" />
        </mxCell>
        <mxCell id="dT-vbAdVCcEeyKs4xp4G-66" value="&lt;font style=&quot;font-size: 16px;&quot;&gt;$$b_1$$&lt;/font&gt;" style="text;html=1;align=center;verticalAlign=middle;whiteSpace=wrap;rounded=0;" vertex="1" parent="1">
          <mxGeometry x="195" y="530" width="60" height="30" as="geometry" />
        </mxCell>
        <mxCell id="dT-vbAdVCcEeyKs4xp4G-67" value="&lt;font style=&quot;font-size: 12px;&quot;&gt;$$V_{x}$$&lt;/font&gt;" style="text;html=1;align=center;verticalAlign=middle;whiteSpace=wrap;rounded=0;strokeWidth=2;" vertex="1" parent="1">
          <mxGeometry x="170" y="420" width="60" height="30" as="geometry" />
        </mxCell>
        <mxCell id="dT-vbAdVCcEeyKs4xp4G-68" value="&lt;font style=&quot;font-size: 12px;&quot;&gt;$$2C$$&lt;/font&gt;" style="text;html=1;align=center;verticalAlign=middle;whiteSpace=wrap;rounded=0;strokeWidth=2;" vertex="1" parent="1">
          <mxGeometry x="170" y="475" width="60" height="30" as="geometry" />
        </mxCell>
        <mxCell id="dT-vbAdVCcEeyKs4xp4G-69" value="&lt;font style=&quot;font-size: 12px;&quot;&gt;$$C$$&lt;/font&gt;" style="text;html=1;align=center;verticalAlign=middle;whiteSpace=wrap;rounded=0;strokeWidth=2;" vertex="1" parent="1">
          <mxGeometry x="110" y="475" width="60" height="30" as="geometry" />
        </mxCell>
        <mxCell id="dT-vbAdVCcEeyKs4xp4G-70" value="&lt;font style=&quot;font-size: 12px;&quot;&gt;$$C_{b}=\frac{4}{3}C$$&lt;/font&gt;" style="text;html=1;align=center;verticalAlign=middle;whiteSpace=wrap;rounded=0;" vertex="1" parent="1">
          <mxGeometry x="245" y="400" width="60" height="30" as="geometry" />
        </mxCell>
        <mxCell id="dT-vbAdVCcEeyKs4xp4G-71" value="&lt;font style=&quot;font-size: 12px;&quot;&gt;$$C$$&lt;/font&gt;" style="text;html=1;align=center;verticalAlign=middle;whiteSpace=wrap;rounded=0;strokeWidth=2;" vertex="1" parent="1">
          <mxGeometry x="50" y="475" width="60" height="30" as="geometry" />
        </mxCell>
        <mxCell id="dT-vbAdVCcEeyKs4xp4G-72" value="" style="shape=flexArrow;endArrow=classic;html=1;rounded=0;" edge="1" parent="1">
          <mxGeometry width="50" height="50" relative="1" as="geometry">
            <mxPoint x="332" y="450" as="sourcePoint" />
            <mxPoint x="392" y="450" as="targetPoint" />
          </mxGeometry>
        </mxCell>
        <mxCell id="dT-vbAdVCcEeyKs4xp4G-73" value="" style="pointerEvents=1;verticalLabelPosition=bottom;shadow=0;dashed=0;align=center;html=1;verticalAlign=top;shape=mxgraph.electrical.capacitors.capacitor_1;direction=west;strokeWidth=2;" vertex="1" parent="1">
          <mxGeometry x="489" y="435" width="80" height="30" as="geometry" />
        </mxCell>
        <mxCell id="dT-vbAdVCcEeyKs4xp4G-74" value="&lt;font style=&quot;font-size: 12px;&quot;&gt;$$V_{x}$$&lt;/font&gt;" style="text;html=1;align=center;verticalAlign=middle;whiteSpace=wrap;rounded=0;strokeWidth=2;" vertex="1" parent="1">
          <mxGeometry x="541" y="420" width="60" height="30" as="geometry" />
        </mxCell>
        <mxCell id="dT-vbAdVCcEeyKs4xp4G-75" value="&lt;font style=&quot;font-size: 12px;&quot;&gt;$$4C$$&lt;/font&gt;" style="text;html=1;align=center;verticalAlign=middle;whiteSpace=wrap;rounded=0;strokeWidth=2;" vertex="1" parent="1">
          <mxGeometry x="499" y="405" width="60" height="30" as="geometry" />
        </mxCell>
        <mxCell id="dT-vbAdVCcEeyKs4xp4G-76" value="&lt;font style=&quot;font-size: 16px;&quot;&gt;$$\frac{1}{2}b_1+\frac{1}{4}b_0$$&lt;/font&gt;" style="text;html=1;align=center;verticalAlign=middle;whiteSpace=wrap;rounded=0;" vertex="1" parent="1">
          <mxGeometry x="417" y="420" width="60" height="30" as="geometry" />
        </mxCell>
        <mxCell id="dT-vbAdVCcEeyKs4xp4G-77" value="" style="pointerEvents=1;verticalLabelPosition=bottom;shadow=0;dashed=0;align=center;html=1;verticalAlign=top;shape=mxgraph.electrical.capacitors.capacitor_1;strokeWidth=2;" vertex="1" parent="1">
          <mxGeometry x="569" y="435" width="80" height="30" as="geometry" />
        </mxCell>
        <mxCell id="dT-vbAdVCcEeyKs4xp4G-78" value="&lt;font style=&quot;font-size: 12px;&quot;&gt;$$V_{dac}$$&lt;/font&gt;" style="text;html=1;align=center;verticalAlign=middle;whiteSpace=wrap;rounded=0;strokeWidth=2;" vertex="1" parent="1">
          <mxGeometry x="290" y="420" width="60" height="30" as="geometry" />
        </mxCell>
        <mxCell id="dT-vbAdVCcEeyKs4xp4G-79" value="&lt;font style=&quot;font-size: 12px;&quot;&gt;$$V_{dac}$$&lt;/font&gt;" style="text;html=1;align=center;verticalAlign=middle;whiteSpace=wrap;rounded=0;strokeWidth=2;" vertex="1" parent="1">
          <mxGeometry x="620" y="420" width="60" height="30" as="geometry" />
        </mxCell>
        <mxCell id="dT-vbAdVCcEeyKs4xp4G-80" value="&lt;font style=&quot;font-size: 12px;&quot;&gt;$$C_{b}=\frac{4}{3}C$$&lt;/font&gt;" style="text;html=1;align=center;verticalAlign=middle;whiteSpace=wrap;rounded=0;" vertex="1" parent="1">
          <mxGeometry x="579" y="400" width="60" height="30" as="geometry" />
        </mxCell>
        <mxCell id="dT-vbAdVCcEeyKs4xp4G-81" value="" style="pointerEvents=1;verticalLabelPosition=bottom;shadow=0;dashed=0;align=center;html=1;verticalAlign=top;shape=mxgraph.electrical.capacitors.capacitor_1;direction=west;strokeWidth=2;" vertex="1" parent="1">
          <mxGeometry x="140.5" y="621" width="80" height="30" as="geometry" />
        </mxCell>
        <mxCell id="dT-vbAdVCcEeyKs4xp4G-82" value="&lt;font style=&quot;font-size: 12px;&quot;&gt;$$V_{x}$$&lt;/font&gt;" style="text;html=1;align=center;verticalAlign=middle;whiteSpace=wrap;rounded=0;strokeWidth=2;" vertex="1" parent="1">
          <mxGeometry x="192.5" y="606" width="60" height="30" as="geometry" />
        </mxCell>
        <mxCell id="dT-vbAdVCcEeyKs4xp4G-83" value="&lt;font style=&quot;font-size: 12px;&quot;&gt;$$4C$$&lt;/font&gt;" style="text;html=1;align=center;verticalAlign=middle;whiteSpace=wrap;rounded=0;strokeWidth=2;" vertex="1" parent="1">
          <mxGeometry x="150.5" y="591" width="60" height="30" as="geometry" />
        </mxCell>
        <mxCell id="dT-vbAdVCcEeyKs4xp4G-84" value="&lt;font style=&quot;font-size: 16px;&quot;&gt;$$\frac{1}{2}b_1+\frac{1}{4}b_0$$&lt;/font&gt;" style="text;html=1;align=center;verticalAlign=middle;whiteSpace=wrap;rounded=0;" vertex="1" parent="1">
          <mxGeometry x="68.5" y="606" width="60" height="30" as="geometry" />
        </mxCell>
        <mxCell id="dT-vbAdVCcEeyKs4xp4G-85" value="" style="pointerEvents=1;verticalLabelPosition=bottom;shadow=0;dashed=0;align=center;html=1;verticalAlign=top;shape=mxgraph.electrical.capacitors.capacitor_1;strokeWidth=2;" vertex="1" parent="1">
          <mxGeometry x="220.5" y="621" width="80" height="30" as="geometry" />
        </mxCell>
        <mxCell id="dT-vbAdVCcEeyKs4xp4G-86" value="&lt;font style=&quot;font-size: 12px;&quot;&gt;$$V_{dac}$$&lt;/font&gt;" style="text;html=1;align=center;verticalAlign=middle;whiteSpace=wrap;rounded=0;strokeWidth=2;" vertex="1" parent="1">
          <mxGeometry x="271.5" y="606" width="60" height="30" as="geometry" />
        </mxCell>
        <mxCell id="dT-vbAdVCcEeyKs4xp4G-87" value="&lt;font style=&quot;font-size: 12px;&quot;&gt;$$C_{b}=\frac{4}{3}C$$&lt;/font&gt;" style="text;html=1;align=center;verticalAlign=middle;whiteSpace=wrap;rounded=0;" vertex="1" parent="1">
          <mxGeometry x="230.5" y="586" width="60" height="30" as="geometry" />
        </mxCell>
        <mxCell id="dT-vbAdVCcEeyKs4xp4G-88" value="" style="shape=flexArrow;endArrow=classic;html=1;rounded=0;" edge="1" parent="1">
          <mxGeometry width="50" height="50" relative="1" as="geometry">
            <mxPoint x="331.5" y="635.71" as="sourcePoint" />
            <mxPoint x="391.5" y="635.71" as="targetPoint" />
          </mxGeometry>
        </mxCell>
        <mxCell id="dT-vbAdVCcEeyKs4xp4G-89" value="" style="pointerEvents=1;verticalLabelPosition=bottom;shadow=0;dashed=0;align=center;html=1;verticalAlign=top;shape=mxgraph.electrical.capacitors.capacitor_1;direction=west;strokeWidth=2;" vertex="1" parent="1">
          <mxGeometry x="489" y="621" width="80" height="30" as="geometry" />
        </mxCell>
        <mxCell id="dT-vbAdVCcEeyKs4xp4G-91" value="&lt;font style=&quot;font-size: 12px;&quot;&gt;$$C$$&lt;/font&gt;" style="text;html=1;align=center;verticalAlign=middle;whiteSpace=wrap;rounded=0;strokeWidth=2;" vertex="1" parent="1">
          <mxGeometry x="499" y="591" width="60" height="30" as="geometry" />
        </mxCell>
        <mxCell id="dT-vbAdVCcEeyKs4xp4G-92" value="&lt;font style=&quot;font-size: 16px;&quot;&gt;$$\frac{1}{2}b_1+\frac{1}{4}b_0$$&lt;/font&gt;" style="text;html=1;align=center;verticalAlign=middle;whiteSpace=wrap;rounded=0;" vertex="1" parent="1">
          <mxGeometry x="417" y="606" width="60" height="30" as="geometry" />
        </mxCell>
        <mxCell id="dT-vbAdVCcEeyKs4xp4G-95" value="&lt;font style=&quot;font-size: 12px;&quot;&gt;$$V_{dac}$$&lt;/font&gt;" style="text;html=1;align=center;verticalAlign=middle;whiteSpace=wrap;rounded=0;strokeWidth=2;" vertex="1" parent="1">
          <mxGeometry x="541" y="606" width="60" height="30" as="geometry" />
        </mxCell>
        <mxCell id="dT-vbAdVCcEeyKs4xp4G-96" value="" style="pointerEvents=1;verticalLabelPosition=bottom;shadow=0;dashed=0;align=center;html=1;verticalAlign=top;shape=mxgraph.electrical.capacitors.capacitor_1;direction=west;strokeWidth=2;" vertex="1" parent="1">
          <mxGeometry x="167" y="706" width="80" height="30" as="geometry" />
        </mxCell>
        <mxCell id="dT-vbAdVCcEeyKs4xp4G-97" value="&lt;font style=&quot;font-size: 12px;&quot;&gt;$$C$$&lt;/font&gt;" style="text;html=1;align=center;verticalAlign=middle;whiteSpace=wrap;rounded=0;strokeWidth=2;" vertex="1" parent="1">
          <mxGeometry x="177" y="676" width="60" height="30" as="geometry" />
        </mxCell>
        <mxCell id="dT-vbAdVCcEeyKs4xp4G-98" value="&lt;font style=&quot;font-size: 16px;&quot;&gt;$$\frac{1}{2}b_1+\frac{1}{4}b_0$$&lt;/font&gt;" style="text;html=1;align=center;verticalAlign=middle;whiteSpace=wrap;rounded=0;" vertex="1" parent="1">
          <mxGeometry x="95" y="691" width="60" height="30" as="geometry" />
        </mxCell>
        <mxCell id="dT-vbAdVCcEeyKs4xp4G-99" value="&lt;font style=&quot;font-size: 12px;&quot;&gt;$$V_{dac}$$&lt;/font&gt;" style="text;html=1;align=center;verticalAlign=middle;whiteSpace=wrap;rounded=0;strokeWidth=2;" vertex="1" parent="1">
          <mxGeometry x="290" y="691" width="60" height="30" as="geometry" />
        </mxCell>
        <mxCell id="dT-vbAdVCcEeyKs4xp4G-100" value="" style="pointerEvents=1;verticalLabelPosition=bottom;shadow=0;dashed=0;align=center;html=1;verticalAlign=top;shape=mxgraph.electrical.capacitors.capacitor_1;direction=south;strokeWidth=2;" vertex="1" parent="1">
          <mxGeometry x="305" y="721" width="30" height="80" as="geometry" />
        </mxCell>
        <mxCell id="dT-vbAdVCcEeyKs4xp4G-103" value="" style="endArrow=none;html=1;rounded=0;exitX=0;exitY=0.5;exitDx=0;exitDy=0;exitPerimeter=0;strokeWidth=2;" edge="1" parent="1">
          <mxGeometry width="50" height="50" relative="1" as="geometry">
            <mxPoint x="245" y="721" as="sourcePoint" />
            <mxPoint x="320" y="721" as="targetPoint" />
          </mxGeometry>
        </mxCell>
        <mxCell id="dT-vbAdVCcEeyKs4xp4G-104" value="&lt;font style=&quot;font-size: 12px;&quot;&gt;$$3C$$&lt;/font&gt;" style="text;html=1;align=center;verticalAlign=middle;whiteSpace=wrap;rounded=0;strokeWidth=2;" vertex="1" parent="1">
          <mxGeometry x="252.5" y="746" width="60" height="30" as="geometry" />
        </mxCell>
        <mxCell id="dT-vbAdVCcEeyKs4xp4G-105" value="" style="pointerEvents=1;verticalLabelPosition=bottom;shadow=0;dashed=0;align=center;html=1;verticalAlign=top;shape=mxgraph.electrical.signal_sources.signal_ground;strokeWidth=2;" vertex="1" parent="1">
          <mxGeometry x="310" y="801" width="20" height="20" as="geometry" />
        </mxCell>
      </root>
    </mxGraphModel>
  </diagram>
</mxfile>
